<svg width="100" height="100" viewBox="0 0 100 100" fill="none" xmlns="http://www.w3.org/2000/svg">
  <rect width="100" height="100" rx="20" fill="#fdf6ee"/>
  
  <circle cx="50" cy="50" r="42" stroke="#d4a832" stroke-width="2" stroke-dasharray="4 2"/>
  
  <path d="M50 20C65 20 75 30 75 45C75 48 74 51 72 54" stroke="#3a7d52" stroke-width="6" stroke-linecap="round"/>
  <circle cx="75" cy="35" r="5" fill="#3a7d52"/>
  
  <path d="M80 50C80 65 70 75 55 75C52 75 49 74 46 72" stroke="#8b6655" stroke-width="6" stroke-linecap="round"/>
  <circle cx="65" cy="75" r="5" fill="#8b6655"/>
  
  <path d="M50 80C35 80 25 70 25 55C25 52 26 49 28 46" stroke="#c0613a" stroke-width="6" stroke-linecap="round"/>
  <circle cx="25" cy="65" r="5" fill="#c0613a"/>
  
  <path d="M20 50C20 35 30 25 45 25C48 25 51 26 54 28" stroke="#d4a832" stroke-width="6" stroke-linecap="round"/>
  <circle cx="35" cy="25" r="5" fill="#d4a832"/>
  
  <path d="M50 42L52 48L58 50L52 52L50 58L48 52L42 50L48 48L50 42Z" fill="#d4a832"/>
</svg>
